<svg xmlns="http://www.w3.org/2000/svg" viewBox="0 0 655 655" width="655" height="655" preserveAspectRatio="xMidYMid meet" style="width: 100%; height: 100%; transform: translate3d(0px, 0px, 0px);"><defs><clipPath id="__lottie_element_25"><rect width="655" height="655" x="0" y="0"></rect></clipPath></defs><g clip-path="url(#__lottie_element_25)"><g transform="matrix(1,0,0,1,327.5,327.5)" opacity="1" style="display: block;"><g opacity="1" transform="matrix(1,0,0,1,0,0)"><path stroke-linecap="round" stroke-linejoin="round" fill-opacity="0" stroke="rgb(255,255,255)" stroke-opacity="1" stroke-width="55" d=" M0,-277.5 C0,-277.5 0,-1 0,-1"></path></g></g><g transform="matrix(1,0,0,1,327.5,327.5)" opacity="1" style="display: block;"><g opacity="1" transform="matrix(1,0,0,1,0,0)"><path stroke-linecap="round" stroke-linejoin="round" fill-opacity="0" stroke="rgb(255,255,255)" stroke-opacity="1" stroke-width="55" d=" M0,277.5 C0,277.5 0,1 0,1"></path></g></g><g transform="matrix(1,0,0,1,327.5,327.5)" opacity="1" style="display: block;"><g opacity="1" transform="matrix(1,0,0,1,0,0)"><path stroke-linecap="round" stroke-linejoin="round" fill-opacity="0" stroke="rgb(255,255,255)" stroke-opacity="1" stroke-width="55" d=" M-277.5,0 C-277.5,0 1,0 1,0"></path></g></g><g transform="matrix(1,0,0,1,327.5,327.5)" opacity="1" style="display: block;"><g opacity="1" transform="matrix(1,0,0,1,0,0)"><path stroke-linecap="round" stroke-linejoin="round" fill-opacity="0" stroke="rgb(255,255,255)" stroke-opacity="1" stroke-width="55" d=" M277.5,0 C277.5,0 3,0 3,0"></path></g></g><g transform="matrix(1,0,0,1,327.5,327.5)" opacity="1" style="display: none;"><g opacity="1" transform="matrix(1,0,0,1,0,0)"><path stroke-linecap="round" stroke-linejoin="round" fill-opacity="0" stroke="rgb(255,255,255)" stroke-opacity="1" stroke-width="55" d=" M271.62701416015625,0 C169.49400329589844,0 -169.49400329589844,0 -271.62701416015625,0"></path></g></g></g></svg>